<?xml version="1.0" encoding="utf-8"?>
<!-- Generator: Adobe Illustrator 24.0.1, SVG Export Plug-In . SVG Version: 6.00 Build 0)  -->
<svg version="1.1" id="Layer_1" xmlns="http://www.w3.org/2000/svg" xmlns:xlink="http://www.w3.org/1999/xlink" x="0px" y="0px"
	 viewBox="200 520 1600 965" style="enable-background:new 200 520 1600 965;" xml:space="preserve">
<style type="text/css">
	.st0{fill:url(#SVGID_1_);}
	.st1{fill:url(#SVGID_2_);}
	.st2{fill:#00B6ED;}
	.st3{fill:#0081C9;}
	.st4{enable-background:new    ;}
	.st5{fill:#FBBA00;}
</style>
<g>
	<g>
		<radialGradient id="SVGID_1_" cx="883.9457" cy="560.5868" r="39.0689" gradientUnits="userSpaceOnUse">
			<stop  offset="0" style="stop-color:#FFFFFF"/>
			<stop  offset="1" style="stop-color:#FBBA00"/>
		</radialGradient>
		<circle class="st0" cx="867.3" cy="576.3" r="35.9"/>
		<radialGradient id="SVGID_2_" cx="1426.8696" cy="560.5868" r="39.0689" gradientUnits="userSpaceOnUse">
			<stop  offset="0" style="stop-color:#FFFFFF"/>
			<stop  offset="1" style="stop-color:#FBBA00"/>
		</radialGradient>
		<circle class="st1" cx="1410.2" cy="576.3" r="35.9"/>
		<g id="XMLID_1_">
			<path class="st2" d="M1762.8,618.9c8.1,0,14.3,7.3,13,15.3c-3.4,20.8-12.4,62.3-36.1,120c-15.3-1.7-32.7-3.7-52.1-6
				c16.8-43.6,28.5-93.9,33.3-118.6c1.2-6.2,6.6-10.8,13-10.8H1762.8z"/>
			<path class="st2" d="M1618.6,629.1c5.1,21.9,18,74.7,32.2,114.5c-18-2.3-37.3-4.9-58-7.7c-11.8-30.2-22.2-63.9-29.5-101.3
				c-1.6-8.1,4.7-15.7,13-15.7h29.4C1611.9,618.9,1617.2,623.1,1618.6,629.1z"/>
			<path class="st2" d="M1532.6,556.7V727c-20.2-3.2-39.2-6.2-57.2-9V556.7c0-6.9,5.6-12.4,12.4-12.4h32.4
				C1527,544.3,1532.6,549.9,1532.6,556.7z"/>
			<path class="st2" d="M1438.1,646.8v65.5c-20.5-3.1-39.5-5.9-57.2-8.4v-57.1c0-6.9,5.6-12.4,12.4-12.4h32.4
				C1432.5,634.4,1438.1,639.9,1438.1,646.8z"/>
			<path class="st2" d="M1291.3,622c40.3,14.3,53.1,50.3,53.8,77c-20.2-2.7-38.5-5-55.5-6.8c-6.9-27.3-33.8-30.8-50.4-30.8
				c-19.1,0-40.9,6.3-58.7,15.2c-10.5-10.8-16.6-39.5-16.6-39.5c14.5-7.1,44.7-21.2,87.4-21.2C1267,615.7,1280.2,618,1291.3,622z"/>
			<path class="st2" d="M1126.1,556.7v129.7c-17,1-34.6,2.6-53.8,4.5v-15.9c-5.4-8.3-20.3-15.2-39.6-15.2
				c-14.9,0-38.7,8.6-48.5,42.5c-18.6,2.9-37.8,6.1-57.3,9.5c9-89.3,73.9-97.1,99.1-97.1c23.1,0,38.4,5.7,46.3,12.2v-70.2
				c0-6.9,5.6-12.4,12.4-12.4h29C1120.5,544.3,1126.1,549.9,1126.1,556.7z"/>
			<path class="st2" d="M896.2,646.8v70.4c-19,3.4-38.1,6.8-57.2,10.2v-80.6c0-6.9,5.6-12.4,12.4-12.4h32.4
				C890.6,634.4,896.2,639.9,896.2,646.8z"/>
			<path class="st2" d="M775.7,556.7v181.8c-19.6,3.3-38.8,6.4-57.2,9.1V556.7c0-6.9,5.6-12.4,12.4-12.4h32.4
				C770.1,544.3,775.7,549.9,775.7,556.7z"/>
			<path class="st2" d="M694.9,712.9v37.9c-19.2,2.5-37.3,4.5-54.2,5.8c0.1-1.2,0.1-2.4,0.1-3.6v-40c0-28.4-23-51.4-51.4-51.4h0
				c-28.4,0-51.4,23-51.4,51.4v40c0,1,0,2.1,0.1,3.1c-17.5-1-35.5-2.3-54.1-3.9v-39.2c0-53.7,43.5-97.2,97.2-97.2h16.6
				C651.4,615.7,694.9,659.2,694.9,712.9z"/>
			<path class="st2" d="M453.3,556.7v192.4c-18.4-1.9-37.4-4.1-57.2-6.7v-22.8H281.2v6.2c-18.3-2.9-37.4-6-57.2-9.4V556.7
				c0-6.9,5.6-12.4,12.4-12.4h32.4c6.9,0,12.4,5.5,12.4,12.4v110.7h114.9V556.7c0-6.9,5.6-12.4,12.4-12.4h32.4
				C447.8,544.3,453.3,549.9,453.3,556.7z"/>
			<path class="st2" d="M561.7,1111.4v66.4c0,6.8-5.6,12.4-12.4,12.4h-32.4c-6.9,0-12.4-5.6-12.4-12.4v-66.6
				C524.8,1111.7,543.9,1111.7,561.7,1111.4z"/>
			<path class="st2" d="M946.3,1062.2v36.6c0,53.7-43.5,97.2-97.2,97.2h-16.6c-53.7,0-97.2-43.5-97.2-97.2v-3.4
				c6.9-1.3,13.6-2.6,20.1-3.9c9.3-1.9,20.8-4,33.9-6.3v13.5c0,28.4,23,51.4,51.4,51.4h0c28.4,0,51.4-23,51.4-51.4v-29.2
				C910.1,1067.1,928.3,1064.6,946.3,1062.2z"/>
			<path class="st2" d="M1177.7,1058.7v40.1c0,53.7-43.5,97.2-97.2,97.2h-16.5c-53.7,0-97.2-43.5-97.2-97.2v-39.3
				c18.8-2.4,37.2-4.7,54.4-6.7c-0.2,1.9-0.3,3.9-0.3,5.9v40c0,28.4,23,51.4,51.4,51.4h0c28.4,0,51.4-23,51.4-51.4v-40
				c0-5.3-0.8-10.3-2.3-15.1c17.3-0.6,35.7-0.8,55.1-0.5C1177.3,1048.2,1177.7,1053.4,1177.7,1058.7z"/>
			<path class="st2" d="M1496.8,1120.8c0,48-39.2,72.3-89.9,72.3c-53.1,0-75.5-11.2-82.9-16.1c-1.8-1.2-3-3.3-3.1-5.5
				c-0.3-5.6-0.6-17.8,0.9-29c0.6-4.5,5.3-7.3,9.6-5.6c15.6,6.1,45.2,13.3,68.8,13.3c28.5,0,40.3-12.3,40.3-25s-5.5-16.8-42.8-27
				c-30.1-8.3-58-18.7-67.7-44.8c45.9,4.9,92.8,11.4,138.3,19.1C1484.2,1081.6,1496.8,1096,1496.8,1120.8z"/>
			<path class="st2" d="M1303.7,1161.9v19.7c0,6.3-5.1,11.4-11.4,11.4h-41.1c-40.1,0-44.8-39.4-44.8-97.1V1044
				c18.5,0.7,37.7,1.8,57.2,3.2v89.2c0,7.8,6.3,14.1,14.1,14.1h14.5C1298.6,1150.6,1303.7,1155.6,1303.7,1161.9z"/>
			<path class="st3" d="M1489.3,975.9c2.3,1.7,3.4,4.7,2.7,7.5c-1.6,6.1-4.8,17.4-8.6,26.3c-1.4,3.4-5.2,5.1-8.7,3.9
				c-9.5-3.1-29.3-8.7-49.3-8.7c-27.7,0-44,9.7-44,23.5s12.6,19.5,40.5,27.5c13.5,3.9,31.4,8,46.3,16.5
				c-45.5-7.7-92.4-14.2-138.3-19.1c-2.3-6.3-3.6-13.5-3.6-21.8c0-42.8,42.1-71.4,96.3-71.4C1462.6,960,1481.9,970.4,1489.3,975.9z"
				/>
			<path class="st3" d="M1263.7,904.1v143.1c-19.6-1.4-38.7-2.5-57.2-3.2V904.1c0-6.9,5.6-12.4,12.4-12.4h32.4
				C1258.1,891.7,1263.7,897.3,1263.7,904.1z"/>
			<path class="st3" d="M1176.4,1043.2c-19.3-0.3-37.7-0.2-55.1,0.5c-6.5-21-26-36.3-49.2-36.3h0c-26.4,0-48.2,19.9-51.1,45.5
				c-17.2,2-35.6,4.3-54.4,6.7v-0.8c0-53.7,43.5-97.2,97.2-97.2h16.5C1128.9,961.6,1169,996.9,1176.4,1043.2z"/>
			<path class="st3" d="M946.3,1058.7v3.5c-18,2.4-36.2,4.8-54,7.3v-10.8c0-28.4-23-51.4-51.4-51.4h0c-28.4,0-51.4,23-51.4,51.4
				v26.5c-13.1,2.2-24.7,4.3-33.9,6.3c-6.5,1.3-13.2,2.7-20.1,3.9v-36.7c0-53.7,43.5-97.2,97.2-97.2h16.6
				C902.8,961.6,946.3,1005.1,946.3,1058.7z"/>
			<path class="st3" d="M720.2,986.5v14.9c0,53.2-43.1,96.3-96.3,96.3h-62.3v13.8c-17.8,0.3-36.9,0.2-57.2-0.2V902.7
				c0-6.9,5.6-12.4,12.4-12.4h107C677.1,890.3,720.2,933.4,720.2,986.5z M663.5,999.7v-11.4c0-27.5-22.3-49.9-49.9-49.9h-52v111.2
				h52C641.2,1049.6,663.5,1027.3,663.5,999.7z"/>
			<path class="st3" d="M1739.8,754.2c-4.1,10.1-8.7,20.7-13.8,31.7c-48.2,105-92.7,135.2-143.7,135.2c-13.1,0-22.7-4.3-28.5-7.9
				c-4-2.5-6.4-6.9-6.4-11.7V879c0-4.3,3.8-7.4,8-6.7c5.8,1,14.3,2.1,24.6,2.1c19.3,0,35.8-6.3,60.3-40.1
				c-15.5-27.4-32.5-60-47.5-98.3c20.6,2.8,40,5.4,58,7.7c6.5,18.2,13.3,33.7,19.8,42.3c6.1-11.3,11.9-24.2,17.1-37.7
				C1707.1,750.6,1724.5,752.6,1739.8,754.2z"/>
			<path class="st3" d="M1572.6,814.5v19.7c0,6.3-5.1,11.4-11.4,11.4h-41.1c-40.1,0-44.8-39.4-44.8-97.1V718c18,2.8,37,5.8,57.2,9
				v62c0,7.8,6.3,14.1,14.1,14.1h14.5C1567.5,803.1,1572.6,808.2,1572.6,814.5z"/>
			<path class="st3" d="M1438.1,712.3v120.9c0,6.9-5.6,12.4-12.4,12.4h-32.4c-6.9,0-12.4-5.6-12.4-12.4V703.9
				C1398.6,706.4,1417.6,709.2,1438.1,712.3z"/>
			<path class="st3" d="M1345.1,701.2v132c0,6.9-5.6,12.4-12.4,12.4h-22.3c-6.9,0-12.4-5.6-12.4-12.4l-1.4-8
				c-24.4,22.7-47.1,25.7-72.5,25.7c-42.6,0-71.5-30-71.5-62.9c0-85.3,138.8-73.9,138.8-73.9s0-0.8,0-7.7c0-5.4-0.6-10.2-1.7-14.4
				c16.9,1.9,35.3,4.1,55.5,6.8C1345.1,699.7,1345.1,700.4,1345.1,701.2z M1291.3,793.9v-45.1c-60,1-84.8,13.7-84.8,33.6
				c0,20.8,10.6,28.5,34,28.5C1263.9,810.9,1276,802.3,1291.3,793.9z"/>
			<path class="st3" d="M1126.1,686.4v146.8c0,6.9-5.6,12.4-12.4,12.4h-22.3c-6.9,0-12.4-5.6-12.4-12.4l-1.4-8.1
				c-19,16.2-38.4,23.8-64.7,23.8c-61.7,0-87-50-87-115.6c0-7.6,0.4-14.8,1-21.5c19.5-3.4,38.8-6.6,57.3-9.5
				c-2.8,9.7-4.5,21.5-4.5,35.7c0,32.5,10.2,65.5,46.3,65.5c27.8,0,46.3-17.4,46.3-17.4V691C1091.5,689,1109,687.5,1126.1,686.4z"/>
			<path class="st3" d="M896.2,717.2v116c0,6.9-5.6,12.4-12.4,12.4h-32.4c-6.9,0-12.4-5.6-12.4-12.4V727.4
				C858,724,877.2,720.6,896.2,717.2z"/>
			<path class="st3" d="M815.7,814.5v19.7c0,6.3-5.1,11.4-11.4,11.4h-41.1c-40.1,0-44.8-39.4-44.8-97.1v-0.9
				c18.5-2.7,37.6-5.8,57.2-9.1V789c0,7.8,6.3,14.1,14.1,14.1h14.5C810.6,803.1,815.7,808.2,815.7,814.5z"/>
			<path class="st3" d="M694.9,750.8v2.2c0,53.7-43.5,97.2-97.2,97.2h-16.6c-53.7,0-97.2-43.5-97.2-97.2v-0.9
				c18.6,1.6,36.6,3,54.1,3.9c1.6,27,24,48.3,51.3,48.3h0c27.2,0,49.4-21.1,51.3-47.8C657.5,755.3,675.7,753.3,694.9,750.8z"/>
			<path class="st3" d="M281.2,725.8v107.4c0,6.9-5.5,12.4-12.4,12.4h-32.4c-6.9,0-12.4-5.6-12.4-12.4V716.5
				C243.8,719.8,262.8,722.9,281.2,725.8z"/>
			<path class="st3" d="M453.3,749.1v84.1c0,6.9-5.6,12.4-12.4,12.4h-32.4c-6.9,0-12.4-5.6-12.4-12.4v-90.7
				C415.9,745,435,747.2,453.3,749.1z"/>
		</g>
	</g>
	<g class="st4">
		<path class="st5" d="M913.8,1273.6c-4.4-2.3-9.8-0.7-12.2,3.7c-10.7,20-32.6,44.1-44.8,45.3c-1.2,0.1-1.8,0-2-0.1
			c-1.6-2-1.5-14.1,7.9-31.6c11.1-20.7,13.8-35.2,8.2-44.5c-2.5-4.1-7.6-8.9-18-8.8c-18.4,0.2-44.6,29.5-62,51.8
			c0.2-0.5,0.4-1.1,0.6-1.6c0,0,0,0,0,0c0.3-0.7,0.5-1.5,0.8-2.2c3.3-9.1,6.9-18.6,10.8-27.8c10.3-6.8,35.6-24.6,51.8-44.3
			c12.6-15.3,32.5-43.3,25-59.7c-1.7-3.7-6.2-9.8-17.4-10c-0.1,0-0.2,0-0.4,0c-17.3,0-35,23.5-67.5,89.3c-2,4-4,8.3-5.9,12.6
			c-3,2-4.4,5.6-3.8,9c-3.4,8.3-6.6,16.8-9.6,24.9c-3.1,4-6.1,7.9-8.9,11.7c-18.7,24.7-32.2,42.6-64.6,43.2c-0.3,0-0.5,0-0.8,0
			c-11.6,0-13.9-5.1-14.8-7.1c-5.8-13.1,5.2-42.2,23-61.1c8.9-9.4,17.7-14,24.7-12.7c3.1,0.5,5,2.1,5.8,3.1c-0.5,1.6-1.7,4.2-3.4,7
			c-1.7,2.9-3.8,6-5.9,8.8c-3,3.9-2.3,9.6,1.6,12.6c3.9,3,9.6,2.3,12.6-1.6c2.9-3.8,12.5-16.9,13.2-26.4c0.5-7.4-5.3-15.3-14.1-19.2
			c-6.9-3-25.3-7.5-47.6,16.1c-9.7,10.3-18.4,24-23.7,38c-0.5,0.4-0.9,0.9-1.3,1.4c-2.3,3-4.5,6.2-6.6,9.3
			c-7.5,11.1-14.5,21.6-27.1,22.5c-1.8-0.1-2.2-0.6-2.4-1c-1.3-1.8-1.8-5-1.8-8.8c0-6.5,1.5-14.6,3.2-20.4c0.1-0.2,0.1-0.4,0.2-0.6
			c0,0,0,0,0,0c6.8-13.3,12.1-26.4,16-36.2c1.4-3.4,2.6-6.4,3.5-8.6c2-4.6-0.1-9.9-4.6-11.8c-4.6-2-9.9,0.1-11.9,4.7
			c-1,2.4-2.3,5.5-3.7,9.1c-10,24.8-33.2,82.8-65.8,82.3c-6.4-0.4-8.9-3.3-10.3-5.7c-3.3-5.6-4-14.4-2.9-25.1
			c25-23.9,42.7-42.8,61.3-72c0.1-0.2,0.2-0.3,0.3-0.5c2.4-4.4,23.5-43.5,24.8-67c0.9-16.6-9.1-20.7-12.3-21.5
			c-16.7-4.5-38.5,17.5-61.3,62c0,0.1-0.1,0.2-0.1,0.3c-0.5,1-11.4,24.1-20.2,51.6c-4.7,14.5-7.8,27.3-9.5,38.5
			c-4.6,4.3-9.4,8.9-14.6,13.8c-3.4,3.2-7,6.5-10.7,10c-6.1,5.8-12.4,10.8-18.7,15.2c7.4-25.7,12.3-50.3,13.4-56.1
			c6.9-14.2,11.4-25.9,11.8-26.8c1.8-4.6-0.5-9.8-5.2-11.6c-3.1-1.2-6.4-0.6-8.8,1.3c-37.5-11.5-74,22.6-88.4,51.5
			c-0.5,0.9-0.9,1.8-1.3,2.7h0c0,0,0,0,0,0l0,0c-2.5,3.2-4.7,6.6-6.8,9.8c-7.6,11.8-12.5,18.5-24.3,19.1c-1.2,0.1-1.5-0.2-1.6-0.4
			c-1.5-1.8-2.1-5.8-2.1-10.8c0-6.3,1-14,2.6-20.6c10.5-19.4,18.1-38.9,18.5-40.1c1.8-4.6-0.5-9.8-5.1-11.6
			c-3.1-1.2-6.4-0.6-8.8,1.3c-37.5-11.5-74,22.6-88.4,51.5c-0.3,0.6-0.6,1.2-0.8,1.8c-10,12.4-30.8,37.5-48.6,37.5
			c-0.7,0-1.4,0-2.1-0.1c-2.8-0.3-3.4-1.3-3.7-1.8c-5.4-9,8.2-43.4,14.1-58c4-10,9.6-22.3,15.6-34.7c2.1,0,4.3,0,6.4,0
			c7.8,0,15.7-0.1,22.7-0.3c5-0.2,8.9-4.3,8.7-9.3c-0.2-5-4.3-8.8-9.3-8.7c-5.9,0.2-12.8,0.3-19.5,0.3
			c11.3-22.4,21.6-41.2,21.8-41.5c2.4-4.4,0.8-9.8-3.6-12.2c-4.4-2.4-9.8-0.8-12.2,3.6c-0.8,1.5-13.4,24.4-26.1,50
			c-9.9-0.1-17-0.3-17.2-0.3c-5-0.2-9.1,3.8-9.3,8.7s3.8,9.1,8.7,9.3c0.4,0,3.8,0.1,9,0.2c-4.8,10.1-9.2,19.9-12.5,28.3
			c-12.4,31.3-21.9,58.5-12.8,73.9c2.5,4.1,7.4,9.3,17,10.4c1.4,0.2,2.8,0.3,4.3,0.3c16.1,0,31.3-10.8,43.6-22.7
			c0.7,3.9,2,7.7,3.8,11c3.9,7.2,10,11.8,16.8,12.6c1,0.1,2.1,0.2,3.1,0.2c13.4,0,28.9-10.1,46.1-30c0.9,5,2.5,9.6,5.4,13.1
			c3.7,4.5,9.1,7,15.2,7c0.4,0,0.9,0,1.3,0c11.9-0.7,20.1-5.4,26.3-11.5c0.7,2.6,1.7,5,3,7.4c3.9,7.2,10,11.8,16.8,12.6
			c1,0.1,2.1,0.2,3.1,0.2c12.7,0,27.3-9.1,43.5-27c-2.2,8.1-4.7,16.4-7.4,24.3c-6.6,3.5-13.3,6.9-20.1,10.2
			c-16.1,8-32.7,16.3-48.4,27.9c-25.7,19.1-39.1,41.5-34.8,58.6c1.6,6.2,6.9,17.1,25.3,19.8c1.6,0.2,3.1,0.3,4.7,0.3
			c15.5,0,31.9-11,48.9-32.9c12.8-16.5,25.9-39.4,35-61.4c1.4-3.3,2.7-6.7,4-10.2c13.4-7.6,26.7-16.5,39.6-28.6
			c3.7-3.5,7.3-6.8,10.7-10c0.5-0.4,0.9-0.9,1.4-1.3c0.8,6.8,2.6,12.5,5.3,17.3c5.2,8.8,13.8,13.8,24.9,14.5c0.1,0,0.2,0,0.3,0
			c0.3,0,0.7,0,1,0c18.4,0,33.6-10.9,45.9-25.8c0.8,3.2,2.1,6.3,4,8.9c2.8,3.8,8,8.3,17.1,8.4h0.1c0.2,0,0.3,0,0.5,0
			c13.3-0.7,22.5-7.1,29.7-14.8c0.5,2.2,1.2,4.3,2,6.3c3,6.7,10.9,17.8,31.3,17.8c0.3,0,0.7,0,1,0c26.5-0.5,43.5-10.6,57.4-24.6
			c-0.4,1.4-0.8,2.4-1,3.1l-0.2,0.5c-0.6,1.7-1.2,3.3-1.6,4.7c-2.6,8.5,2.7,11.8,4.3,12.7c1.5,0.8,2.9,1.1,4.2,1.1
			c5.1,0,8.6-4.9,11-8c2.6-3.6,6.5-9.3,11.8-17.5c10.1-15.5,23.9-33.1,36-45.9c20.9-22.3,28.8-22.6,29.1-22.6c1.4,0,2.2,0.2,2.5,0.3
			c0.7,1.8,0.4,9.7-8.7,26.6c-8.7,16.2-15.1,37.9-7,50.1c2.3,3.5,7.8,9.1,18.7,8c25.5-2.5,51.7-41.4,58.9-54.8
			C919.8,1281.4,918.2,1275.9,913.8,1273.6z M840.4,1186.3c15.3-24,21.7-24.6,21.8-24.6c0.6,0,1.1,0.1,1.4,0.1
			c0.3,4.5-5.5,19.4-22.6,40.1c-6,7.3-13.6,14.4-21,20.7C826.5,1209.9,833.5,1197.1,840.4,1186.3z M585.9,1211.9
			c19.9-38.8,34.5-50.2,39.5-52.3c0.1,0.7,0.1,1.6,0.1,2.7c-0.9,16.3-16.4,47.9-22.5,59.1c-12.6,19.8-24.5,34.3-39.4,49.6
			C569.5,1250.1,578.3,1228,585.9,1211.9z M354.2,1306.5c-17.2,20.7-29.8,27.2-35.9,26.5c-0.5-0.1-1.8-0.9-3.1-3.3
			c-2.7-4.9-3.8-14.5,1-26c0,0,0,0,0,0c0.3-0.8,0.7-1.7,1.2-2.5c0.1-0.2,0.1-0.3,0.2-0.5c7.7-15.4,31-43.9,56.8-43.9l4.8,0
			c1.4,0,2.3,1.4,1.7,2.6C374.7,1273.3,364.6,1294,354.2,1306.5z M397.5,1446c-6.2-0.9-9.7-3.1-10.5-6.4c-2-8,7-24.2,28-39.8
			c14.4-10.7,29.6-18.2,45.6-26.2c0.7-0.3,1.3-0.7,1.9-1C444.5,1411.6,416.2,1448.8,397.5,1446z M492.7,1270.1
			c0,0.1-0.1,0.2-0.1,0.3c0,0,0,0,0,0.1c-5.9,12.1-13.4,25.7-21.1,34.9c-17.3,20.7-29.9,27.3-35.9,26.5c-0.5-0.1-1.8-0.9-3.1-3.3
			c-2.9-5.4-4-16.2,2.4-29c7.7-15.4,31-43.9,56.9-43.9l4.8,0c1.4,0,2.3,1.4,1.7,2.6C496.6,1261.9,494.8,1265.9,492.7,1270.1
			C492.7,1270.1,492.7,1270.1,492.7,1270.1z"/>
		<g>
			<path class="st5" d="M1247.9,1165.2c3.1-7.2-1.4-11.5-4.2-12.8c-0.7-0.3-7.2-3.1-11.8,3.9c-0.4,0.6-0.9,1.5-1.6,2.6
				c-1.3,2.2-3,5.3-5.1,9.1c-3.5,6.6-9.6,18.1-18.3,35.8l-2.3,4.6c-6.4,13-12.9,26.4-18.9,39.7c-1.1,1.6-2.1,3.1-3.2,4.5
				c-2.5,3.3-5.2,7.2-8.3,11.6c-19.9,28.2-53.2,75.4-92.6,76.2c-5.5,0.1-6.6-1.8-7.1-2.6c-1.7-2.9-5.7-15.7,13.2-59
				c10.8-24.7,23.7-46.7,23.8-47c0.1-0.2,0.2-0.3,0.3-0.5c16.5-32.8,20.2-59.8,10.3-76.1c-5.1-8.5-13.5-13.3-23.5-13.5
				c-0.3,0-0.5,0-0.8,0c-20.9,0-52.4,14.4-77.6,45.8c-21.2,26.5-16.1,49-10.9,60.5c2.1,4.7,7.7,6.6,12.3,4.3l0,0
				c4.2-2.2,6-7.3,4.1-11.6c-3.8-8.7-6.6-24.4,8.7-42.1c22.2-25.7,47.4-38.8,63.3-38.8c0.2,0,0.4,0,0.6,0c3.7,0.1,6.5,1.6,8.4,4.8
				c4.9,8.1,4.6,27.7-10.9,58.5c-1.6,2.7-13.8,23.9-24.6,48.5c-16.3,37.2-20.3,61.8-12.3,75.5c3.2,5.4,9.7,11.8,23,11.5
				c33.1-0.7,60.7-25,81.8-50.3c-4.9,19.5-6.4,37.3-2.4,51.8c1.1,4,4.7,6.6,8.7,6.6c0.8,0,1.6-0.1,2.4-0.3c4.8-1.3,7.6-6.3,6.2-11.1
				c-6.6-23.6,7.8-64.1,22.8-98.2C1221.6,1226.3,1247.6,1165.8,1247.9,1165.2z"/>
			<path class="st5" d="M1768.9,1266c-4.5-2-9.9,0-11.9,4.6l-0.2,0.5c-2.9,6.7-11.9,26.9-31.4,36.6c-3.8,1.7-7.6,3.4-11.2,4.9
				c5.4-7.2,10.2-15.3,14.5-24.3c7.9-16.7,9-30.1,3.2-39.8c-6.8-11.3-19.5-12.4-21-12.4c-0.2,0-0.4,0-0.6,0
				c-18.2,0.3-37.5,20.3-55.7,44.9c-0.2-0.3-0.5-0.5-0.8-0.8c3-8.3,6.3-16.8,9.8-25c10.3-6.8,35.6-24.6,51.8-44.3
				c12.6-15.3,32.5-43.3,24.9-59.7c-1.7-3.6-6.2-9.8-17.4-10c-0.1,0-0.2,0-0.4,0c-17.3,0-35,23.5-67.5,89.2c-2,4.1-4,8.3-5.9,12.6
				c-3,2-4.4,5.6-3.8,8.9c-6.5,15.8-12.2,32.1-16.7,45.7c-7.6,8.7-16.4,17.2-20.8,21.2c-3.8,2.6-7.1,3.7-8.6,2.8
				c-3-1.9-6-11.3-4.1-22.3c0.2-1.1,0.4-2.2,0.6-3.2c2.8-4.8,5-9.2,6.7-12.8c9.9-20.8,7.7-25.3,6.6-27.4c-1.8-3.6-5.6-5.7-9.6-5.1
				c-4.6,0.7-7.9,3.5-13.8,17.5c-1.8,4.3-4.7,12-6.9,21c-4.5,7.5-10.2,15.9-17.3,24.4c-12.3,14.8-25.6,20-32.4,17.5
				c-6-2.2-6.8-10.9-6.8-15.9c0.2-29.4,29-63.5,29.2-63.8c3.2-3.8,2.8-9.5-1-12.7c-3.8-3.2-9.5-2.8-12.7,1
				c-1.1,1.3-21.7,25.8-30.1,53.9c-0.1,0.1-0.2,0.3-0.4,0.4c-2.5,3.3-4.7,6.6-6.8,9.9c-7.6,11.8-12.5,18.5-24.3,19.1
				c-1.2,0.1-1.4-0.2-1.6-0.4c-3.4-4.1-2.3-20.1,0.7-32c0-0.2,0.1-0.3,0.1-0.5c10.2-19,17.5-37.8,17.9-39c1.8-4.6-0.5-9.8-5.2-11.6
				c-3.1-1.2-6.4-0.6-8.8,1.3c-37.5-11.5-74,22.6-88.4,51.5c-0.5,1.1-1,2.2-1.5,3.3c-0.2,0.4-0.4,0.7-0.6,1.1
				c-4,8.1-22.3,36.9-42.7,37.1c-4.2-0.7-6.9-2.7-8.8-6.6c-2.9-5.9-3.6-14.5-2.8-24.8c5.9-6.5,12-13.4,18.3-20.6
				c4.9-5.6,9.5-10.9,13.6-15.5c24.1-26.5,51.3-73,53.3-100c1.4-18.6-9.2-23.4-12.4-24.5c-14.2-4.4-31.9,10-49.9,40.6
				c-15,25.4-35.5,73.7-40.2,112.2c-5.9,6.4-11.9,12.5-17.8,17.9c-18.2,16.8-27.2,18.8-30.9,18.6c-1.1-0.1-1.7-0.2-2-0.3
				c-0.2-1-0.4-5.2,4.6-16.1c4.2-9,10.3-19,15.3-27.1c1.1-1.7,2.1-3.4,3-4.9c3.4-5.7,4.5-11.3,3.1-16.8c-2.6-10.1-12.7-15.9-21.5-21
				c-1.7-1-3.8-2.2-5.8-3.4c1.8-4.2,3.2-7.5,3.5-9.2c1.2-5-0.9-10-5.4-13.1c-5.1-3.5-12.1-3.5-17.1-0.1c-2.7,1.9-8.7,7.5-5.8,20.1
				c0.6,2.5,1.6,4.7,3,6.8c-3.9,8.2-8.7,18.2-13.3,27.4c-2.2,4.5-0.4,9.9,4.1,12.1c4.5,2.2,9.9,0.4,12.1-4.1
				c2.8-5.6,7.2-14.6,11.4-23.4c1.5,0.9,2.9,1.7,4.3,2.5c4.9,2.8,12.4,7.1,13.1,9.9c0.1,0.5-0.3,1.7-1,3c-0.9,1.5-1.9,3.1-3,4.8
				c-16,26.1-27.7,47.2-20.5,61.1c2.1,4.1,6.7,9.1,16.7,9.8c0.6,0,1.2,0.1,1.8,0.1c14.2,0,30-11.1,47.8-28.5
				c0.7,5.4,2.1,10.2,4.2,14.4c4.7,9.6,12.7,15.3,23.2,16.6c0.3,0,0.7,0.1,1,0.1c0.2,0,0.3,0,0.5,0c16.2,0,30-9.9,40.2-20.7
				c0.7,2.4,1.6,4.7,2.8,6.8c3.9,7.2,10,11.8,16.8,12.6c1,0.1,2.1,0.2,3.1,0.2c13.5,0,29.1-10.2,46.4-30.3c0.8,5.1,2.5,9.9,5.5,13.5
				c3.7,4.5,9.1,7,15.2,7c0.4,0,0.9,0,1.3,0c13.3-0.7,21.9-6.6,28.4-13.6c2.5,10.2,8.5,17.4,17.2,20.6c3.1,1.1,6.4,1.7,9.8,1.7
				c13.7,0,29.5-8.9,42.6-24.6c1.1-1.3,2.2-2.6,3.2-3.9c2,6.5,5.6,12.2,11.1,15.6c4.5,2.9,14,6.2,27.1-2.3
				c-1.7,7.6,3.1,10.7,4.6,11.5c7.4,3.7,12.2-3,15.2-7c2.6-3.6,6.5-9.3,11.8-17.5c10.4-15.9,21.6-32.5,33-45.7
				c15.7-18.2,24.6-21.6,28.6-21.9c1.1,0.2,4.7,0.9,6.3,3.7c1.1,1.9,3,8.1-4,22.8c-11.5,24.3-27.6,40.8-45.4,47.1
				c-9.6,2.2-15.4,2.9-15.5,2.9c-4.8,0.6-8.3,4.8-7.9,9.6c0.4,4.7,4.3,8.3,9,8.3c0.1,0,0.2,0,0.3,0c6.5-0.2,12.8-1.4,18.9-3.4
				c14.5-3.3,36.3-9.6,61.3-21c0.1,0,0.2-0.1,0.3-0.1c25.4-12.6,36.3-37.4,39.9-45.5l0.2-0.5C1775.5,1273.4,1773.5,1268,1768.9,1266
				z M1700.9,1183.8c15.3-24,21.7-24.6,21.8-24.6c0.6,0,1.1,0.1,1.4,0.1c0.3,4.5-5.5,19.4-22.6,40.1c-6,7.3-13.6,14.4-21.1,20.7
				C1687,1207.5,1694,1194.7,1700.9,1183.8z M1373.4,1191.8c14.6-24.9,25.1-31.5,28.4-32.4c0.3,0.9,0.6,2.6,0.4,5.8
				c-1.6,20.4-24.8,62.9-48.7,89.3c-3.6,4-7.6,8.5-11.7,13.3C1349.4,1240.7,1361.8,1211.4,1373.4,1191.8z M1388.7,1298.6
				C1388.7,1298.6,1388.7,1298.6,1388.7,1298.6c0.1-0.5,0.2-0.9,0.4-1.4C1388.9,1297.6,1388.8,1298.1,1388.7,1298.6z M1444,1306.5
				c-17.2,20.7-29.9,27.2-35.9,26.5c-0.5-0.1-1.8-0.9-3.1-3.3c-2.9-5.4-4-16.2,2.4-29c7.7-15.4,31-43.9,56.8-43.9l4.8,0
				c1.4,0,2.3,1.4,1.7,2.6C1464.6,1273.3,1454.4,1294,1444,1306.5z"/>
		</g>
		<path class="st5" d="M373.5,1210c-2.5,6.6-7.9,10.8-13.5,10.8c-1.3,0-2.6-0.2-3.9-0.7c-2.9-1-5.2-3.2-6.6-6.2
			c-1.7-3.7-1.7-8.4,0-12.9c3.1-8.2,10.6-12.5,17.3-10.1c2.9,1,5.2,3.2,6.6,6.2C375.2,1200.8,375.2,1205.5,373.5,1210z"/>
		<path class="st5" d="M413.3,1210c-2.5,6.6-7.9,10.8-13.5,10.8c-1.3,0-2.6-0.2-3.9-0.7c-2.9-1-5.2-3.2-6.6-6.2
			c-1.7-3.7-1.7-8.4,0-12.9c2.5-6.6,7.9-10.8,13.5-10.8c1.3,0,2.6,0.2,3.9,0.7c2.9,1,5.2,3.2,6.6,6.2
			C415,1200.8,415,1205.5,413.3,1210z"/>
		<path class="st5" d="M682.2,1197.5c-2.5,6.7-7.9,10.8-13.5,10.8c-1.3,0-2.6-0.2-3.9-0.7c-2.9-1.1-5.2-3.2-6.6-6.2
			c-1.7-3.7-1.7-8.4,0-12.9c3.1-8.2,10.6-12.5,17.3-10.1c2.9,1,5.2,3.2,6.6,6.2C684,1188.3,683.9,1193,682.2,1197.5z"/>
	</g>
</g>
</svg>
